<svg xmlns="http://www.w3.org/2000/svg" viewBox="0 0 24 24" id="avocado"><path fill="#303C42" d="M18.919 9.615c-.42-.767-.855-1.561-1.23-2.416-.322-.73-.592-1.45-.85-2.135C15.817 2.347 14.935 0 12 0 9.081 0 8.157 2.447 7.179 5.038c-.266.703-.54 1.43-.867 2.158-.392.88-.837 1.64-1.268 2.377C3.992 11.368 3 13.063 3 16.025 3 20.57 6.87 24 12 24s9-3.429 9-7.975c0-2.61-1.01-4.455-2.081-6.41z"></path><path fill="#7CB342" d="M12 23c-4.56 0-8-2.999-8-6.975 0-2.69.884-4.2 1.906-5.947.445-.76.905-1.544 1.32-2.474.337-.756.617-1.497.887-2.212C9.173 2.587 9.876 1 12 1c2.139 0 2.843 1.596 3.903 4.416.264.701.541 1.44.87 2.185.394.895.838 1.708 1.269 2.495C19.049 11.935 20 13.67 20 16.025 20 20 16.56 23 12 23z"></path><path fill="#AED581" d="M12 22c-3.99 0-7-2.569-7-5.975 0-2.418.78-3.751 1.768-5.44.464-.793.935-1.598 1.372-2.573.344-.774.627-1.52.9-2.241C10.161 2.798 10.654 2 12 2c1.357 0 1.853.803 2.968 3.768.272.726.555 1.477.89 2.236.414.942.888 1.808 1.307 2.572.984 1.799 1.835 3.352 1.835 5.449C19 19.43 15.99 22 12 22z"></path><path fill="#303C42" d="M12 11c-2.29 0-4 2.64-4 5 0 2.355 1.645 4 4 4s4-1.645 4-4c0-2.36-1.71-5-4-5z"></path><path fill="#5D4037" d="M12 19c-1.493 0-3-.928-3-3 0-2.056 1.458-4 3-4s3 1.944 3 4c0 2.072-1.507 3-3 3z"></path><path d="M13.201 12.398c.186.503.299 1.047.299 1.602 0 2.072-1.507 3-3 3a3.32 3.32 0 0 1-1.437-.328C9.353 18.272 10.68 19 12 19c1.493 0 3-.928 3-3 0-1.5-.78-2.933-1.799-3.602z" opacity=".1"></path><linearGradient id="a" x1="12.03" x2="17.484" y1="15.789" y2="21.244" gradientUnits="userSpaceOnUse"><stop offset="0" stop-opacity=".1"></stop><stop offset="1" stop-opacity="0"></stop></linearGradient><path fill="url(#a)" d="M15 12.819l-.001.001C15.626 13.745 16 14.901 16 16c0 2.355-1.645 4-4 4-1.002 0-1.862-.311-2.535-.835l3.753 3.753c3.336-.409 5.88-2.478 6.582-5.299l-4.8-4.8z"></path><linearGradient id="b" x1="5.107" x2="21.461" y1="9.108" y2="16.733" gradientUnits="userSpaceOnUse"><stop offset="0" stop-color="#FFF" stop-opacity=".2"></stop><stop offset="1" stop-color="#FFF" stop-opacity="0"></stop></linearGradient><path fill="url(#b)" d="M18.919 9.615c-.42-.767-.855-1.561-1.23-2.416-.322-.73-.592-1.45-.85-2.135C15.817 2.347 14.935 0 12 0 9.081 0 8.157 2.447 7.179 5.038c-.266.703-.54 1.43-.867 2.158-.392.88-.837 1.64-1.268 2.377C3.992 11.368 3 13.063 3 16.025 3 20.57 6.87 24 12 24s9-3.429 9-7.975c0-2.61-1.01-4.455-2.081-6.41z"></path></svg>