<svg xmlns="http://www.w3.org/2000/svg" xmlns:xlink="http://www.w3.org/1999/xlink" data-name="Layer 1" viewBox="0 0 36 36" id="calories"><defs><clipPath id="a"><circle cx="-43.05" cy="-37.77" r="10.16" fill="none"></circle></clipPath><clipPath id="b"><circle cx="-41.01" cy="18" r="10.16" fill="none"></circle></clipPath><clipPath id="c"><circle cx="13.42" cy="18.7" r="10.16" fill="none"></circle></clipPath><clipPath id="d"><circle cx="-40.94" cy="73.9" r="10.16" fill="none"></circle></clipPath><clipPath id="e"><circle cx="13.5" cy="74.6" r="10.16" fill="none"></circle></clipPath></defs><g clip-path="url(#a)"><use transform="matrix(.24 0 0 .24 -89.36 -84.08)" xlink:href="#b"></use></g><g clip-path="url(#b)"><use transform="matrix(.24 0 0 .24 -87.33 -28.31)" xlink:href="#b"></use></g><g clip-path="url(#c)"><use transform="matrix(.24 0 0 .24 -32.96 -27.68)" xlink:href="#f"></use></g><g clip-path="url(#d)"><use transform="matrix(.24 0 0 .24 -87.25 27.59)" xlink:href="#b"></use></g><g clip-path="url(#e)"><use transform="matrix(.24 0 0 .24 -32.88 28.22)" xlink:href="#f"></use></g><path fill="none" stroke="#262262" stroke-linecap="round" stroke-miterlimit="10" d="M27.5 23.61A7.73 7.73 0 0120 28.33a8.9 8.9 0 01-.9 0c-5.58-.55-9.36-6.6-7.16-11.75l.76-2.14 2 2.53 5-7.86 5 7.9 2.93-3.59L28.41 16M13.78 19.89A4.85 4.85 0 0017.52 25"></path></svg>