<svg xmlns="http://www.w3.org/2000/svg" viewBox="0 0 64 64" id="weight-scale"><g data-name="Outline"><path d="M57 4H7a5.006 5.006 0 0 0-5 5v46a5.006 5.006 0 0 0 5 5h50a5.006 5.006 0 0 0 5-5V9a5.006 5.006 0 0 0-5-5Zm3 51a3 3 0 0 1-3 3H7a3 3 0 0 1-3-3V9a3 3 0 0 1 3-3h50a3 3 0 0 1 3 3Z"></path><path d="M55 8h-2.877a3.008 3.008 0 0 0-2.417 1.224l-15.289 20.8a3.016 3.016 0 0 1-4.834 0L14.294 9.223A3.012 3.012 0 0 0 11.877 8H9a3 3 0 0 0-3 3v42a3 3 0 0 0 3 3h46a3 3 0 0 0 3-3V11a3 3 0 0 0-3-3Zm1 45a1 1 0 0 1-1 1H9a1 1 0 0 1-1-1V11a1 1 0 0 1 1-1h2.877a1.006 1.006 0 0 1 .806.407l15.289 20.8a5.025 5.025 0 0 0 8.056 0l15.289-20.8a1.006 1.006 0 0 1 .806-.407H55a1 1 0 0 1 1 1Z"></path><circle cx="21" cy="51" r="1"></circle><path d="M17 50h-6a1 1 0 0 0 0 2h6a1 1 0 0 0 0-2zm26.252-39.2a24.008 24.008 0 0 0-22.5 0 2.007 2.007 0 0 0-.651 2.941l6.076 8.265a2 2 0 0 0 2.382.686 8.963 8.963 0 0 1 6.89 0 2 2 0 0 0 2.382-.685l6.069-8.266a2.007 2.007 0 0 0-.648-2.941zm-7.035 10.047a10.9 10.9 0 0 0-3.217-.8V14a1 1 0 0 0-2 0v6.049a11.464 11.464 0 0 0-3.216.772l-6.1-8.256a22.013 22.013 0 0 1 20.606-.01z"></path></g></svg>