<svg viewBox="50 50 270 270" width="360" height="360" xmlns="http://www.w3.org/2000/svg"><svg xmlns="http://www.w3.org/2000/svg" data-name="Layer 1" viewBox="0 0 700 550" width="360" height="360"><path fill="#6cd2b0" d="M177.36 285.855h-32.38v-31.452a16.19 16.19 0 0 1 16.19-16.19 16.19 16.19 0 0 1 16.19 16.19Z" class="colorffba55 svgShape"/><circle cx="161.737" cy="255.176" r="12.117" fill="#fff" class="colorfff svgShape"/><path fill="#031f14" d="M165.192 245.637c-.84 3.292-1.916 6.5-3.052 9.685l-.18-.51c3.007 1.84 5.973 3.747 8.8 5.881-3.188-1.544-6.236-3.315-9.246-5.152l-.3-.183.121-.328c1.167-3.174 2.395-6.326 3.857-9.393Z" class="color080200 svgShape"/><path fill="#fff" d="M268.162 173.062c-51.307 40.05-81.91 208.637 14.291 209.834 50.639.63 140.707 33.91 200.088 64.804 57.74 30.038 44.908-133.995-14.291-209.834s-148.782-104.853-200.088-64.804Z" class="colorffe3cb svgShape"/><path fill="#fff" d="M507.998 464.371c-4.356 0-9.14-1.329-14.268-3.998l.441-.847c11.9 6.19 21.46 5.088 28.416-3.276 12.706-15.275 15.39-53.62 7.005-100.075-8.805-48.778-28.131-95.923-51.696-126.113-31.35-40.161-71.396-69.657-112.763-83.055-41.3-13.378-78.965-9.097-106.057 12.05l-.588-.754c27.35-21.35 65.33-25.684 106.94-12.206 41.547 13.455 81.756 43.066 113.221 83.377 23.658 30.307 43.053 77.607 51.884 126.531 8.435 46.725 5.672 85.37-7.21 100.857-4.158 4.998-9.338 7.51-15.325 7.51Z" class="colorffe3cb svgShape"/><path fill="#6cd2b0" d="M589.14 465.367H110.86a1 1 0 1 1 0-2h478.28a1 1 0 0 1 0 2Z" class="color935b50 svgShape"/><path fill="#18a76c" class="colord6694b svgShape" d="M125.98 290.847h207.36v165.6H125.98z"/><path fill="#18a76c" class="colore19974 svgShape" d="M110.86 285.807h236.88v5.04H110.86z"/><path fill="#6cd2b0" class="color935b50 svgShape" d="M130.84 295.887h197.64v38.88H130.84zM130.84 334.767h197.64v38.88H130.84zM130.84 373.647h197.64v38.88H130.84zM130.84 412.527h197.64v38.88H130.84z"/><path fill="#18a76c" class="colord6694b svgShape" d="M221.38 429.447h16.56v5.04h-16.56zM221.38 390.567h16.56v5.04h-16.56zM221.38 351.687h16.56v5.04h-16.56zM221.38 312.807h16.56v5.04h-16.56z"/><path fill="#18a76c" class="colore19974 svgShape" d="M135.98 456.447h18v7.92h-18zM305.34 456.447h18v7.92h-18zM130.84 334.268h197.64v1H130.84zM130.84 373.147h197.64v1H130.84zM130.84 412.027h197.64v1H130.84z"/><path fill="#47ab81" d="M487.846 354.944c2.874 2.233 7.938 7.537 8.074 11.514 0 0 9.306-10.118 6.66-18.772a16.162 16.162 0 0 0-7.39-7.443s3.65-2.048 7.481 2.977c0 0-1.368-13.585-20.299-8.653 0 0-7.39-15.074-22.033-.838 0 0 9.854-1.256 7.938 1.815 0 0-5.93 1.582-9.83 4.962a9.85 9.85 0 0 0-3.308 6.878c-.228 3.675-.578 10.948.137 11.05.958.139 7.253-5.584 11.495-5.165s-9.716 12.98-9.716 12.98 2.874 10.887 4.106 10.747c1.23-.14 5.702-3.256 3.877 0l-3.148 2.512 4.106 5.676 10.31-4.56s-4.562-12.467-.366-9.071c0 0 3.193 4.234 3.239 7.397 0 0 13.799-6.001 12.43-10.119a92.484 92.484 0 0 0-5.215-11.126 4.705 4.705 0 0 1-.57-1.97c-.046-1.047.228-2.187 2.022-.791Zm-1.695-14.453c1.292-.892 4.47-.318 5.664 2.59 1.277 3.109 1.224 6.575-.068 7.466-1.293.892-4.965-.27-5.885-3.28-1.019-3.35-1.004-5.885.289-6.776Z" class="color8b9d36 svgShape"/><path fill="#4fb390" d="M482.372 334.567a51.09 51.09 0 0 0-4.073 5.295 31.027 31.027 0 0 0-2.886 5.976c-.752 2.085-1.357 4.223-1.9 6.385-.551 2.164-1.077 4.326-1.516 6.51-.464 2.176-.87 4.368-1.203 6.568-.342 2.2-.539 4.414-.81 6.639a37.114 37.114 0 0 1-3.934 12.8 44.631 44.631 0 0 0 2.186-6.315 35.599 35.599 0 0 0 1.161-6.548 103.747 103.747 0 0 1 1.85-13.301c.464-2.193 1.017-4.368 1.59-6.528a53.496 53.496 0 0 1 2.027-6.42 31.111 31.111 0 0 1 3.124-5.974 44.278 44.278 0 0 1 4.384-5.087Z" class="color5e7c24 svgShape"/><path fill="#4fb390" d="M476.998 341.66a20.398 20.398 0 0 0-2.242.563c-.74.205-1.467.45-2.187.712a57.32 57.32 0 0 0-4.244 1.754c-1.397.628-2.754 1.344-4.118 2.053-1.36.72-2.686 1.502-4.05 2.247.592-.502 1.21-.97 1.822-1.45.642-.436 1.273-.89 1.93-1.307a34.369 34.369 0 0 1 4.096-2.24 29.528 29.528 0 0 1 4.386-1.618 17.333 17.333 0 0 1 4.607-.715zm-6.237 21.585c-1.06.822-2.164 1.495-3.242 2.197q-.81.52-1.582 1.074a4.345 4.345 0 0 0-1.31 1.361 2.859 2.859 0 0 1 .91-1.807 9.223 9.223 0 0 1 1.566-1.273 11.291 11.291 0 0 1 3.658-1.552zm2.114-9.942a36.456 36.456 0 0 1 3.487 3.761 38.52 38.52 0 0 1 3.002 4.175 26.849 26.849 0 0 1 2.342 4.594 13.985 13.985 0 0 1 1.077 5.022 19.793 19.793 0 0 0-1.62-4.79 41.835 41.835 0 0 0-2.45-4.42c-.88-1.443-1.847-2.834-2.819-4.225-.98-1.384-1.993-2.75-3.02-4.117z" class="color5e7c24 svgShape"/><path fill="#47ab81" d="m460.248 396.908 3.832 3.536s3.74-3.955 4.151-1.21c0 0-.593 2.745-1.323 2.978 0 0 9.169 7.374 11.017 1.302a58.565 58.565 0 0 1 2.805-7.955s2.053 1.116.274 9.91c0 0 7.096-2.086 9.73-5.911a2.737 2.737 0 0 0 .464-1.527c.026-2.187.314-8.342 2.806-6.031 0 0 1.437.698.342 5.373 0 0 5.775-6.51 3.032-10.512a4.001 4.001 0 0 0-4.906-1.294c-1.603.696-4.579 1.978-10.1 4.34a110.182 110.182 0 0 1-22.124 7.001Z" class="color8b9d36 svgShape"/><path fill="#4fb390" d="M472.875 402.305a21.882 21.882 0 0 1 1.886-5.799 14.097 14.097 0 0 1 1.62-2.625 6.273 6.273 0 0 1 1.113-1.104 2.334 2.334 0 0 1 1.458-.521 2.479 2.479 0 0 0-1.208.803 8.37 8.37 0 0 0-.877 1.172 26.643 26.643 0 0 0-1.416 2.612c-.881 1.791-1.666 3.636-2.576 5.462zm12.462-2.885a18.206 18.206 0 0 1 .486-5.361 13.751 13.751 0 0 1 .896-2.572 4.037 4.037 0 0 1 1.811-2.023 5.495 5.495 0 0 0-1.258 2.253c-.268.828-.497 1.67-.703 2.523-.416 1.708-.76 3.439-1.232 5.18zm63.772-63.384s-9.214 1.322-1.003 7.835c0 0 2.098 1.768 8.94 3.815 0 0 4.289-18.648-7.937-11.65z" class="color5e7c24 svgShape"/><path fill="#2c8c69" d="M557.047 347.686c-.171-.61-.283-1.222-.436-1.823-.186-.593-.317-1.198-.536-1.772a17.62 17.62 0 0 0-1.545-3.303 13.256 13.256 0 0 0-2.321-2.776 10.988 10.988 0 0 0-3.1-1.976 7.81 7.81 0 0 1 3.471 1.517 10.4 10.4 0 0 1 2.601 2.83 12.616 12.616 0 0 1 1.457 3.542c.158.616.229 1.25.34 1.87.032.635.07 1.264.069 1.891Z" class="color50661a svgShape"/><path fill="#4fb390" d="M537.415 298.359s10.216-6.509 13.276 7.943c0 0-5.302-4.563-5.372-1.924a20.235 20.235 0 0 1 3.845 6.852 7.503 7.503 0 0 1-.739 5.54c-1.298 2.363-3.922 7.005-4.383 6.795-.617-.281-2.088-6.247-4.744-7.617s.653 11.78.653 11.78-5.93 5.647-6.6 5.088-2.083-4.208-2.279-1.489l.872 2.766-4.624 1.943-4.283-6.787s7.538-5.98 3.749-5.485c0 0-3.526 1.398-4.786 3.343 0 0-5.772-9.022-3.363-11.05a68.353 68.353 0 0 1 7.382-4.887 3.46 3.46 0 0 0 1.256-1.225c.34-.586.406-1.21-1.016-1.053-2.56.28-7.601 1.625-9.231 4.039 0 0-1.528-9.85 3.399-14.199a11.376 11.376 0 0 1 7.243-1.777s-1.347-2.671-5.557-1.027c0 0 6.097-7.898 15.302 2.43Z" class="color5e7c24 svgShape"/><path fill="#2c8c69" d="M541.993 314.538c-.838-2.03-1.608-4.052-2.568-5.97a15.988 15.988 0 0 0-1.651-2.714 4.222 4.222 0 0 0-2.546-1.752 3.72 3.72 0 0 1 2.995 1.356 11.237 11.237 0 0 1 1.888 2.767 19.637 19.637 0 0 1 1.882 6.313zM521.01 319.4a15.358 15.358 0 0 1 1.953-3.158 14.668 14.668 0 0 1 2.65-2.648 9.743 9.743 0 0 1 3.363-1.727 6.478 6.478 0 0 1 3.724.12 8.479 8.479 0 0 0-3.545.452 11.785 11.785 0 0 0-3.076 1.764 21.346 21.346 0 0 0-2.664 2.43 43.553 43.553 0 0 0-2.405 2.767z" class="color50661a svgShape"/><path fill="#2c8c69" d="M530.589 299.674a4.73 4.73 0 0 1 3.154-1.853 7.411 7.411 0 0 1 1.889-.05c.314.03.623.094.935.143l.915.237.226.059-.093.236c-1.194 3.014-2.208 6.11-3.209 9.2-.98 3.1-1.862 6.228-2.727 9.362q-1.246 4.715-2.333 9.472c-.729 3.172-1.37 6.362-2.026 9.556.4-3.234.882-6.462 1.514-9.663.574-3.213 1.354-6.384 2.145-9.55.798-3.164 1.746-6.29 2.766-9.39 1.014-3.105 2.15-6.164 3.47-9.161l.133.294-.872-.26c-.296-.056-.591-.13-.89-.179a7.111 7.111 0 0 0-1.809-.059 4.776 4.776 0 0 0-3.188 1.606Z" class="color50661a svgShape"/><path fill="#2c8c69" d="M533.747 327.612a16.92 16.92 0 0 0-1.223-3.226 2.905 2.905 0 0 0-1.047-1.128 3.556 3.556 0 0 0-1.635-.305 2.408 2.408 0 0 1 1.865-.248 2.784 2.784 0 0 1 1.48 1.295 5.418 5.418 0 0 1 .56 3.612Z" class="color50661a svgShape"/><path fill="#44b991" d="M499.66 402.305s-1.815-6.27-6.425-2.725a9.252 9.252 0 0 0-3.195 4.901c-.832 3-1.55 8.438.498 16.154 0 0 4.719-6.53 8.21-8.84 3.938-2.605 6.478-8.56.913-9.49Z" class="colorc4ce6e svgShape"/><path fill="#47ab81" d="M499.66 402.305a7.902 7.902 0 0 0-1.79 1.842 18.023 18.023 0 0 0-1.412 2.147 47.537 47.537 0 0 0-2.272 4.623c-.676 1.584-1.289 3.196-1.893 4.817l-1.755 4.901c.15-.858.348-1.705.521-2.56.2-.848.45-1.682.673-2.526a44.737 44.737 0 0 1 1.749-4.935 29.5 29.5 0 0 1 2.48-4.633 10.508 10.508 0 0 1 3.7-3.676zm6.655-87.085s.153-6.535-5.3-4.6a9.092 9.092 0 0 0-4.513 3.667c-1.692 2.597-4.01 7.548-4.377 15.533 0 0 6.454-4.741 10.471-5.85 4.53-1.25 8.737-6.125 3.719-8.75z" class="color8b9d36 svgShape"/><path fill="#4fb390" d="M506.315 315.22a7.768 7.768 0 0 0-2.259 1.194 17.712 17.712 0 0 0-1.99 1.603 46.69 46.69 0 0 0-3.552 3.691c-1.12 1.297-2.187 2.64-3.248 3.995l-3.14 4.117c.4-.769.842-1.512 1.263-2.27.445-.744.933-1.46 1.398-2.193a44.163 44.163 0 0 1 3.147-4.151 29.066 29.066 0 0 1 3.753-3.639 10.34 10.34 0 0 1 4.628-2.347Z" class="color5e7c24 svgShape"/><path fill="#47ab81" d="M547.47 402.305s1.816-6.27 6.427-2.725a9.252 9.252 0 0 1 3.194 4.901c.832 3 1.55 8.438-.497 16.154 0 0-4.72-6.53-8.211-8.84-3.938-2.605-6.478-8.56-.913-9.49Z" class="color8b9d36 svgShape"/><path fill="#4fb390" d="M547.47 402.305a10.508 10.508 0 0 1 3.701 3.676 29.499 29.499 0 0 1 2.48 4.633 44.74 44.74 0 0 1 1.748 4.935c.223.844.473 1.678.673 2.526.173.855.372 1.702.522 2.56l-1.756-4.901c-.604-1.62-1.216-3.233-1.893-4.817a47.542 47.542 0 0 0-2.272-4.623 18.026 18.026 0 0 0-1.412-2.147 7.901 7.901 0 0 0-1.79-1.842Z" class="color5e7c24 svgShape"/><path fill="#2c8c69" d="m520.59 431.03-.767-.04c3.787-72.946 14.372-92.467 22.586-95.997a6.762 6.762 0 0 1 6.95.751l-.498.584a6.004 6.004 0 0 0-6.166-.622c-6.555 2.837-18.143 18.992-22.105 95.323Z" class="color50661a svgShape"/><path fill="#2c8c69" d="M522.381 431.138c-6.796-19.27 4.092-92.07 4.56-95.16l.758.116c-.113.755-11.326 75.699-4.594 94.788zm-4.364-.035c-.062-.25-6.306-24.97-14.295-28.563a4.21 4.21 0 0 0-3.883.105l-.356-.68a4.989 4.989 0 0 1 4.554-.125c8.327 3.745 14.468 28.045 14.725 29.077z" class="color50661a svgShape"/><path fill="#2c8c69" d="m519.992 420.876-.766-.045c.059-1.014 5.769-101.394-7.486-107.305-1.478-.655-3.21.002-5.152 1.965l-.546-.54c2.19-2.212 4.213-2.927 6.01-2.126 13.736 6.125 8.183 103.892 7.94 108.051zm9.122 10.227-.745-.186c.258-1.032 6.398-25.332 14.725-29.077a4.989 4.989 0 0 1 4.554.125l-.355.68a4.204 4.204 0 0 0-3.884-.105c-7.99 3.594-14.233 28.314-14.295 28.563z" class="color50661a svgShape"/><path fill="#2c8c69" d="M521.18 430.288c-5.15-28.225-12.781-38.434-18.278-42.028-3.525-2.307-6.053-1.747-6.078-1.74l-.181-.746c.113-.027 2.827-.653 6.625 1.807 5.64 3.654 13.456 14.006 18.666 42.568zm2.739.024c-17.077-68.57-21.931-73.438-22.13-73.612l.45-.62c.195.129 4.978 3.991 22.425 74.046zm3.47.717-.767-.039c1.603-30.776 18.895-58.476 19.07-58.753l.649.41c-.173.275-17.36 27.812-18.953 58.382z" class="color50661a svgShape"/><path fill="#18a76c" d="M499.752 422.882v6.371a2.208 2.208 0 0 0 2.186 2.23h43.8a2.208 2.208 0 0 0 2.185-2.23v-5.871a2.209 2.209 0 0 0-2.161-2.23l-43.8-.5a2.208 2.208 0 0 0-2.21 2.23Z" class="colord6694b svgShape"/><path fill="#18a76c" class="colore19974 svgShape" d="m501.843 431.483 1.557 32.884h39.845l2.588-32.884h-43.99z"/><path fill="#4fb390" d="M538.845 370.568c.061-3 6.265 2.443 6.265 2.443-3.695-16.586-15.502-9.67-15.502-9.67-10.796-12.189-17.805-3.497-17.805-3.497 4.873-1.667 6.462 1.435 6.462 1.435a12.975 12.975 0 0 0-8.401 1.675c-5.68 4.714-3.817 15.988-3.817 15.988 1.87-2.667 7.725-3.954 10.69-4.156 1.862-.124 1.535.791 1.034 1.489a3.767 3.767 0 0 1-1.27 1.085 74.493 74.493 0 0 0-8.553 5.219c-2.783 2.186 4.014 12.724 4.014 12.724 1.445-2.148 5.527-3.575 5.527-3.575 4.402-.38-4.303 6.064-4.303 6.064l5.04 7.925 5.36-1.993-1.04-3.187c.204-3.086 1.877 1.132 2.66 1.799.783.674 7.626-5.467 7.626-5.467s-3.969-15.12-.875-13.43c3.102 1.683 4.866 8.538 5.588 8.887.54.263 3.543-4.893 5.034-7.522a8.222 8.222 0 0 0 .806-6.257 24.444 24.444 0 0 0-4.54-7.979Zm-17.311-.124c-1.977 1.636-5.018.729-5.504-.488-.495-1.21 1.018-3.622 3.284-5.157 2.121-1.442 4.562-.364 5.048.853.494 1.21-.63 2.962-2.828 4.792Z" class="color5e7c24 svgShape"/><path fill="#2c8c69" d="M529.606 363.341a36.993 36.993 0 0 1 .77 5.488 25.742 25.742 0 0 1-.493 5.546 42.798 42.798 0 0 1-1.465 5.363c-.57 1.753-1.16 3.508-1.82 5.236a83.887 83.887 0 0 1-4.707 10.032 29.155 29.155 0 0 0-2.15 5.037 37.508 37.508 0 0 0-1.352 5.34 30.216 30.216 0 0 1 2.976-10.645c.806-1.664 1.664-3.281 2.41-4.957a91.36 91.36 0 0 0 2.107-5.084c.677-1.705 1.283-3.435 1.875-5.179.596-1.738 1.131-3.488 1.55-5.264a25.656 25.656 0 0 0 .695-5.42 44.247 44.247 0 0 0-.396-5.493Z" class="color50661a svgShape"/><path fill="#2c8c69" d="M530.127 370.71a14.013 14.013 0 0 1 2.89 2.604 23.853 23.853 0 0 1 2.305 3.146 27.507 27.507 0 0 1 1.799 3.452c.259.595.484 1.204.723 1.804.196.619.404 1.231.571 1.857l-1.825-3.4c-.63-1.114-1.242-2.233-1.92-3.31a54.872 54.872 0 0 0-2.112-3.182 25.47 25.47 0 0 0-1.168-1.516 18.275 18.275 0 0 0-1.263-1.455zm-5.365 17.722a8.485 8.485 0 0 1 1.88 2.734 7.303 7.303 0 0 1 .496 1.613 2.348 2.348 0 0 1-.235 1.686 3.933 3.933 0 0 0-.344-1.532 50.723 50.723 0 0 0-.62-1.46 25.17 25.17 0 0 1-1.177-3.04zm2.992-7.81c-1.31.488-2.61.967-3.898 1.471-1.284.514-2.567 1.02-3.813 1.603a35.43 35.43 0 0 0-3.66 1.88 16.556 16.556 0 0 0-3.278 2.493 10.897 10.897 0 0 1 2.954-2.987 20.736 20.736 0 0 1 3.666-2.085 29.27 29.27 0 0 1 3.94-1.46 27.018 27.018 0 0 1 4.089-.914z" class="color50661a svgShape"/><path fill="#44b991" d="M566.376 351.82s8.9-13.295 20.03 2.404c0 0-8.717-2.63-7.439.576a25.904 25.904 0 0 1 8.152 6.158 9.8 9.8 0 0 1 1.972 7.044c-.338 3.534-1.09 10.513-1.753 10.508-.886-.006-5.73-6.376-9.624-6.594s6.864 13.786 6.864 13.786-4.202 9.96-5.294 9.648-4.672-3.931-3.504-.563l2.474 2.852-4.546 4.813-8.643-5.845s5.96-11.222 1.668-8.595c0 0-3.51 3.572-4.017 6.58 0 0-11.583-7.727-9.74-11.453a91.55 91.55 0 0 1 6.325-9.81 4.697 4.697 0 0 0 .882-2.13c.116-.897-.112-1.713-1.758-.75-2.926 1.71-8.283 6.03-8.993 9.802 0 0-6.916-10.999-3.25-18.863a15.194 15.194 0 0 1 7.775-6.022s-2.995-2.482-7.198 1.75c0 0 3.24-12.75 19.617-5.297Z" class="colorc4ce6e svgShape"/><path fill="#47ab81" d="M566.376 351.82a96.275 96.275 0 0 1 3.85 12.283c1.043 4.168 1.851 8.394 2.484 12.645a126.734 126.734 0 0 1 1.194 12.832 110.307 110.307 0 0 1-.196 12.872c-.034-4.29-.056-8.572-.394-12.84-.128-2.135-.34-4.263-.537-6.393-.258-2.122-.48-4.25-.826-6.36-.566-4.24-1.381-8.443-2.298-12.621-.922-4.178-1.986-8.329-3.277-12.419Z" class="color8b9d36 svgShape"/><path fill="#47ab81" d="M568.597 358.896a20.455 20.455 0 0 0-1.923 2.854 31.058 31.058 0 0 0-1.51 3.061 40.82 40.82 0 0 0-1.2 3.207c-.358 1.089-.678 2.194-1.018 3.312.02-.582.078-1.162.131-1.746.097-.574.167-1.158.31-1.726a19.801 19.801 0 0 1 1.072-3.349 17.416 17.416 0 0 1 1.712-3.08 10.505 10.505 0 0 1 2.426-2.533zm3.703 17.609a8.795 8.795 0 0 1 5.665 4.15 7.203 7.203 0 0 1 .855 2.23c-.45-.66-.868-1.303-1.35-1.895a15.092 15.092 0 0 0-1.526-1.68 17.81 17.81 0 0 0-1.727-1.483 25.57 25.57 0 0 0-1.917-1.322z" class="color8b9d36 svgShape"/><path fill="#f9977a" d="M446.028 213.71s.017-14.085 3.536-16.561 3.518 1.955 3.518 1.955 3.258-2.085 3.258 1.824c0 0 2.866-.088 2.475 4.126 0 0 2.997-1.78 1.955 3.301a82.439 82.439 0 0 1-3.554 11.403Z" class="colorf9977a svgShape"/><path fill="#dd765e" d="M448.912 203.013c1.558.59 3.07 1.27 4.585 1.948 1.506.695 3 1.412 4.477 2.164l.15.076.033.143a2.576 2.576 0 0 1-.39 2.217 2.77 2.77 0 0 1-2 .89 7.548 7.548 0 0 1-2.053-.198 14.815 14.815 0 0 1-1.935-.595c.67.09 1.32.241 1.984.278a8.322 8.322 0 0 0 1.948.003 2.422 2.422 0 0 0 1.537-.776 2.03 2.03 0 0 0 .228-1.62l.182.218a129.29 129.29 0 0 1-4.427-2.266c-1.453-.8-2.908-1.596-4.319-2.482Z" class="colordd765e svgShape"/><path fill="#dd765e" d="M453.082 199.104a9.545 9.545 0 0 1-.272 2.763 9.435 9.435 0 0 1-.976 2.6 9.436 9.436 0 0 1 .271-2.764 9.547 9.547 0 0 1 .977-2.6zm3.258 1.824a8.962 8.962 0 0 1-.23 2.68 8.86 8.86 0 0 1-.936 2.52 8.86 8.86 0 0 1 .23-2.679 8.963 8.963 0 0 1 .936-2.521zm1.476 6.515a2.338 2.338 0 0 1 .166-1.334.698.698 0 1 1 .668.28 2.337 2.337 0 0 1-.834 1.054z" class="colordd765e svgShape"/><path fill="#f9977a" d="M367.554 114.004s9.656-10.255 8.797-14.47-3.9-.994-3.9-.994-.937-3.753-3.62-.91c0 0-2.025-2.032-4.634 1.3 0 0-.957-3.351-3.687 1.06a82.44 82.44 0 0 0-5.243 10.731Z" class="colorf9977a svgShape"/><path fill="#dd765e" d="M372.8 104.245c-1.634-.324-3.239-.744-4.845-1.16-1.6-.436-3.193-.895-4.774-1.391l.282-.034a2.03 2.03 0 0 0-.947 1.334 2.422 2.422 0 0 0 .585 1.62 8.324 8.324 0 0 0 1.418 1.335c.51.429 1.086.765 1.634 1.16a14.815 14.815 0 0 1-1.815-.896 7.547 7.547 0 0 1-1.629-1.266 2.77 2.77 0 0 1-.842-2.019 2.576 2.576 0 0 1 1.237-1.88l.123-.08.16.046c1.59.467 3.17.972 4.742 1.5 1.566.547 3.133 1.091 4.671 1.73Z" class="colordd765e svgShape"/><path fill="#dd765e" d="M372.451 98.54a9.546 9.546 0 0 1-1.074 2.56 9.436 9.436 0 0 1-1.7 2.196 9.436 9.436 0 0 1 1.075-2.56 9.547 9.547 0 0 1 1.7-2.196zm-3.62-.91a8.963 8.963 0 0 1-1.051 2.476 8.858 8.858 0 0 1-1.672 2.106 8.858 8.858 0 0 1 1.05-2.476 8.963 8.963 0 0 1 1.672-2.106zm-5.547 3.724a2.338 2.338 0 0 1 .118-1.34 2.312 2.312 0 0 1 .795-1.083 2.311 2.311 0 0 1-.118 1.339 2.337 2.337 0 0 1-.795 1.084z" class="colordd765e svgShape"/><path fill="#f9977a" d="M400.266 132.642a21.095 21.095 0 0 0-9.887.19c-1.518.427-7.07 1.99-10.055 6.95-1.134 1.883-1.517 4.214-2.283 8.876-.479 2.912-1.747 4.936-1.983 8.511a30.267 30.267 0 0 0 .844 8.624c1.027 4.41.018 6.808.62 7.66 2.425 3.43 10.615 1.41 10.453 5.665-.1 2.629-6.936 8.44-6.093 11.403 4.579 16.1 15.749 24.523 19.67 22.786.535-.237 5.387-20.52 5.184-25.193-.109-2.496-.305-23.93-.003-25.417 1.091-5.375 3.868-5.854 6.458-12.267a10.22 10.22 0 0 0-1.032-9.944 20.876 20.876 0 0 0-11.893-7.844Z" class="colorf9977a svgShape"/><path fill="#031f14" d="M384.31 151.23a.696.696 0 0 0 .417-1.254 7.402 7.402 0 0 0-8.242-.52.697.697 0 0 0 .763 1.166 5.907 5.907 0 0 1 6.646.47.692.692 0 0 0 .415.138zm10.29.685a.696.696 0 0 0 .418-1.254 7.402 7.402 0 0 0-8.243-.52.697.697 0 0 0 .763 1.167 5.892 5.892 0 0 1 6.646.468.692.692 0 0 0 .416.139z" class="color1e1d22 svgShape"/><path fill="#dd765e" d="M385.19 151.575a6.228 6.228 0 0 1-.821 3.277 13.87 13.87 0 0 1-1.923 2.816l-.6.625a1.352 1.352 0 0 0-.418.904 2.215 2.215 0 0 0 .83 1.658 3.994 3.994 0 0 0 3.399.662 4.287 4.287 0 0 1-3.155-.923 1.987 1.987 0 0 1-.652-1.373c-.005-.468.545-.788.936-1.237a12.646 12.646 0 0 0 1.898-2.967 5.465 5.465 0 0 0 .507-3.442zm18.014 1.663a4.197 4.197 0 0 1 1.02.591 5.102 5.102 0 0 1 .832.795 16.596 16.596 0 0 1 1.396 1.918c-.031-.204-.09-.4-.137-.604l-.23-.575a5.102 5.102 0 0 0-.682-1.047 2.897 2.897 0 0 0-2.199-1.078z" class="colordd765e svgShape"/><path fill="#dd765e" d="M403.72 159.008a8.462 8.462 0 0 1 .196-2.541 5.7 5.7 0 0 1 .387-1.195c.154-.397.374-.762.577-1.163a3.713 3.713 0 0 0-.894.998 4.463 4.463 0 0 0-.522 1.254 4.03 4.03 0 0 0 .255 2.647Z" class="colordd765e svgShape"/><path fill="#031f14" d="M400.306 160.783a10.749 10.749 0 0 1 1.02-4.513c.918-1.952 2.064-4.618 4.036-4.669 1.453-.038 2.059-.38 2.486 1.048.706 2.362-.956 4.807-2.113 6.51-1.657 2.435-2.957 2.905-3.097 4.657-.106 1.337 3.533 4.306 4.291 3.831 1.547-.967.951-4.212 5.482-11.541 2.862-4.628 4.091-5.45 4.585-8.425.175-1.056.9-5.429-1.58-8.165-1.149-1.27-1.872-.954-7.064-3.572a44.166 44.166 0 0 1-4.212-2.291c-4.102-2.608-3.927-3.798-6.37-4.671-2.208-.789-2.405.163-6.684-.377-4.126-.52-4.432-1.467-6.383-1.048-3.387.727-5.22 4.171-5.712 5.097a11.467 11.467 0 0 0-1.638 5.261 10.345 10.345 0 0 0 1.674 5.338c.503.586 2.904-2.439 4.177-3.552 1.247-1.091 2.545-.524 4.349-.291 1.759.227 1.589 1.32 4.137 2.46.908.406 4.749-1.017 5.815 1.127 1.137 2.284 2.116 2.617 1.378 4.624-.461 1.253-.333 2.84-.076 6.012.184 2.277-2.164 10.03-2.164 10.03-.766 1.336 3.64.6 3.663-2.88Z" class="color1e1d22 svgShape"/><path fill="#dd765e" d="M387.621 166.508a11.519 11.519 0 0 1-4.247.953 5.084 5.084 0 0 1-2.003-.418 12.447 12.447 0 0 1-1.965-1.08 4.4 4.4 0 0 0 1.552 1.842 4.634 4.634 0 0 0 1.13.568 5.615 5.615 0 0 0 1.26.197 5.284 5.284 0 0 0 2.414-.554 5.04 5.04 0 0 0 1.859-1.508Z" class="colordd765e svgShape"/><path fill="#031f14" d="M383.86 161.543c-2.338-.237-2.7-1.437-7.096 3.631 0 0 4.64-1.117 13.51 1.66 0 0-3.066-4.952-6.414-5.29Z" class="color1e1d22 svgShape"/><path fill="#dd765e" d="M387.342 180.824c4.234-.037 9.95-6.088 9.95-6.088a23.897 23.897 0 0 1-10.832 2.029 2.352 2.352 0 0 1 1.515 2.353 4.03 4.03 0 0 1-.633 1.706Z" class="colordd765e svgShape"/><path fill="#031f14" d="M387.621 154.109a12.86 12.86 0 0 0 2.78.33 8.797 8.797 0 0 0 1.336-.098c.46-.055.918-.167 1.453-.232a3.505 3.505 0 0 1-2.786 1.33 3.705 3.705 0 0 1-1.565-.337 2.807 2.807 0 0 1-1.218-.993zm-10.268-.349a18.683 18.683 0 0 0 2.339.373 4.231 4.231 0 0 0 1.06-.062 11.158 11.158 0 0 0 1.188-.311 2.042 2.042 0 0 1-.904 1.038 2.482 2.482 0 0 1-1.394.333 3 3 0 0 1-1.334-.41 2.453 2.453 0 0 1-.955-.961z" class="color1e1d22 svgShape"/><path fill="#18a76c" d="M384.497 184.64c-1.147 7.864 4.864 14.364 11.12 14.333 5.18-.025 10.292-4.53 11.119-10.858l11.34 5.336a15.173 15.173 0 0 1 8.2 9.82l8.606 32.275 10.077-22.413 12.857 6.95s-10.945 41.177-23.281 41.003a19.516 19.516 0 0 1-8.861-5.038l4.041 17.29s-10.643-1.914-23.153 6.426-36.486 0-36.486 0l-2.866-51.602s-5.031-26.377-14.97-43.802l-19.866-32.384s-1.737-2.606 2.085-9.382 20.328-34.749 20.328-34.749l14.594 7.124-12.683 34.227 15.795 26.035a21.603 21.603 0 0 0 12.004 9.408Z" class="colorf73c4f svgShape"/><path fill="#031f14" d="M344.276 148.154a5.481 5.481 0 0 1 2.996-1.338 10.41 10.41 0 0 1 3.322.035c.551.069 1.08.226 1.619.346.525.164 1.05.326 1.562.522.505.214 1.01.427 1.5.667.476.272.961.52 1.423.81l-3.101-.941a27.557 27.557 0 0 0-3.114-.69 13.876 13.876 0 0 0-3.147-.19 7.189 7.189 0 0 0-3.06.779zm81.398 107.894a30.308 30.308 0 0 1-3.862-6.287 44.798 44.798 0 0 1-2.57-6.942 46.769 46.769 0 0 1-1.338-7.279c-.156-1.224-.166-2.46-.231-3.69-.015-1.23.044-2.463.096-3.688.16 2.454.304 4.896.687 7.31a54.358 54.358 0 0 0 1.483 7.156 51.648 51.648 0 0 0 2.379 6.907 43.18 43.18 0 0 0 3.356 6.513zm-43.088 15.637a27.66 27.66 0 0 0 8.252 1.366 20.016 20.016 0 0 0 8.102-1.544 18.56 18.56 0 0 0 6.675-4.814 30.176 30.176 0 0 0 4.596-6.997 24.749 24.749 0 0 1-4.177 7.364 18.566 18.566 0 0 1-6.812 5.113 19.703 19.703 0 0 1-8.398 1.432 22.798 22.798 0 0 1-8.238-1.92zm52.383-21.892a22.324 22.324 0 0 1-1.043-7.117 28.824 28.824 0 0 1 .238-3.6 23.634 23.634 0 0 1 .718-3.53l-.155 3.577a90.05 90.05 0 0 0-.078 3.554 78.796 78.796 0 0 0 .074 3.551c.061 1.184.118 2.371.246 3.565zM356.7 184.9a20.448 20.448 0 0 1 4.128 3.236 22.2 22.2 0 0 1 3.269 4.144 17.845 17.845 0 0 1 2.084 4.857 15.942 15.942 0 0 1 .508 5.224c-.16-.865-.148-1.735-.388-2.573l-.263-1.263-.39-1.229a22.163 22.163 0 0 0-2.17-4.64 29.82 29.82 0 0 0-3.054-4.14 28.914 28.914 0 0 0-1.791-1.87c-.607-.62-1.265-1.185-1.934-1.746z" class="colorb02336 svgShape"/><path fill="#6cd2b0" d="m473.787 334.594-45.333-66.037-.39-.082a81.243 81.243 0 0 1-46.386 12.011l-10.937-.503-4.7 155.081a5 5 0 0 0 4.277 5.1l15.575 2.271a5 5 0 0 0 5.681-4.31l8.418-65.458 60.253-7.78a19.447 19.447 0 0 0 13.542-30.293Zm-70.65 13.615 5.25-40.82 32.576 31.013Z" class="color6c7fd8 svgShape"/><path fill="#031f14" class="color065082 svgShape" d="m440.772 338.709.383-.613 8.34 5.213-.384.613zM402.653 278.46c.515 1.766.953 3.547 1.38 5.33.433 1.783.811 3.576 1.19 5.37.36 1.797.72 3.594 1.026 5.403.312 1.807.613 3.616.834 5.442-.516-1.765-.954-3.547-1.38-5.33-.433-1.782-.812-3.576-1.19-5.37-.36-1.797-.72-3.594-1.024-5.402-.312-1.808-.613-3.617-.836-5.442ZM399.643 372.622l3.128-24.46.718.093-3.128 24.458z"/><path fill="#f9977a" d="m370.683 440.217-1.128 7.773s3.518 12.51 7.818 10.034 8.731-7.428 8.731-7.428v-8.13Z" class="colorf9977a svgShape"/><path fill="#6cd2b0" d="M336.787 462.986v-.1a4.142 4.142 0 0 1 2.278-3.699l29.568-14.901a1.38 1.38 0 0 1 1.725.403l5.78 7.692a1.38 1.38 0 0 0 1.814.355l6.783-4.07a1.38 1.38 0 0 1 2.091 1.184v13.136a1.38 1.38 0 0 1-1.38 1.381h-47.278a1.38 1.38 0 0 1-1.381-1.38Z" class="colorffba55 svgShape"/><rect width="114.819" height="46.18" x="201.079" y="239.628" fill="#6cd2b0" rx="3.581" class="colorf65b2b svgShape"/><path fill="#4b927a" d="M298.423 239.627h-2.865v-7.104a1.434 1.434 0 0 0-1.432-1.433h-71.79a1.434 1.434 0 0 0-1.433 1.433v7.104h-2.864v-7.104a4.301 4.301 0 0 1 4.297-4.297h71.79a4.301 4.301 0 0 1 4.296 4.297Z" class="color7ca1b1 svgShape"/><path fill="#6cd2b0" class="colorffba55 svgShape" d="M244.222 259.366h29.134v17.017h-29.134zM244.222 249.053h29.134v5.414h-29.134z"/><circle cx="251.57" cy="267.874" r="3.438" fill="#4b927a" class="colora2aee6 svgShape"/><circle cx="266.008" cy="267.874" r="3.438" fill="#4b927a" class="colora2aee6 svgShape"/><circle cx="224.283" cy="262.717" r="14.309" fill="#4b927a" class="colora2aee6 svgShape"/><circle cx="292.693" cy="262.717" r="14.309" fill="#4b927a" class="colora2aee6 svgShape"/><path fill="#4b927a" class="colora2aee6 svgShape" d="M271.595 235.889h5.672v3.738h-5.672zM278.878 235.889h5.672v3.738h-5.672zM286.162 235.889h5.672v3.738h-5.672z"/><path fill="#6cd2b0" d="M543.604 177.376H469.96a2 2 0 0 1-2-2V95.649a2 2 0 0 1 2-2h87.289a2 2 0 0 1 2 2v66.675zm13.645 0a2 2 0 0 0 2-2v-13.052l-15.644 15.052z" class="colorffba55 svgShape"/><path fill="#18a76c" d="M483.604 103.028a1.5 1.5 0 0 1-1.5-1.5v-14.4a1.5 1.5 0 0 1 3 0v14.4a1.5 1.5 0 0 1-1.5 1.5zm-10 0a1.5 1.5 0 0 1-1.5-1.5v-14.4a1.5 1.5 0 0 1 3 0v14.4a1.5 1.5 0 0 1-1.5 1.5zm20 0a1.5 1.5 0 0 1-1.5-1.5v-14.4a1.5 1.5 0 0 1 3 0v14.4a1.5 1.5 0 0 1-1.5 1.5zm10 0a1.5 1.5 0 0 1-1.5-1.5v-14.4a1.5 1.5 0 0 1 3 0v14.4a1.5 1.5 0 0 1-1.5 1.5zm10 0a1.5 1.5 0 0 1-1.5-1.5v-14.4a1.5 1.5 0 1 1 3 0v14.4a1.5 1.5 0 0 1-1.5 1.5zm10 0a1.5 1.5 0 0 1-1.5-1.5v-14.4a1.5 1.5 0 1 1 3 0v14.4a1.5 1.5 0 0 1-1.5 1.5zm10 0a1.5 1.5 0 0 1-1.5-1.5v-14.4a1.5 1.5 0 1 1 3 0v14.4a1.5 1.5 0 0 1-1.5 1.5zm10 0a1.5 1.5 0 0 1-1.5-1.5v-14.4a1.5 1.5 0 1 1 3 0v14.4a1.5 1.5 0 0 1-1.5 1.5zm10 0a1.5 1.5 0 0 1-1.5-1.5v-14.4a1.5 1.5 0 1 1 3 0v14.4a1.5 1.5 0 0 1-1.5 1.5zM559.179 162.252l-15.644.144.139 15.052 15.505-15.196z" class="colore6952a svgShape"/><circle cx="522.104" cy="118.528" r="6.48" fill="#18a76c" class="colore6952a svgShape"/><circle cx="540.084" cy="118.528" r="6.48" fill="#18a76c" class="colore6952a svgShape"/><circle cx="484.693" cy="134.528" r="6.48" fill="#18a76c" class="colore6952a svgShape"/><circle cx="503.604" cy="134.528" r="6.48" fill="#18a76c" class="colore6952a svgShape"/><circle cx="522.104" cy="134.528" r="6.48" fill="#18a76c" class="colore6952a svgShape"/><circle cx="540.084" cy="134.528" r="6.48" fill="#18a76c" class="colore6952a svgShape"/><circle cx="484.693" cy="150.528" r="6.48" fill="#18a76c" class="colore6952a svgShape"/><circle cx="503.604" cy="150.528" r="6.48" fill="#18a76c" class="colore6952a svgShape"/><circle cx="522.104" cy="150.528" r="6.48" fill="#18a76c" class="colore6952a svgShape"/><circle cx="540.084" cy="150.528" r="6.48" fill="#18a76c" class="colore6952a svgShape"/><circle cx="484.693" cy="165.528" r="6.48" fill="#18a76c" class="colore6952a svgShape"/><path fill="#fff" d="M499.838 144.19a37.714 37.714 0 0 1 4.32 6.009c.619 1.062 1.223 2.133 1.762 3.242a26.788 26.788 0 0 1 1.45 3.426 26.787 26.787 0 0 1-2.316-2.912c-.716-1.004-1.367-2.047-2.004-3.097a37.714 37.714 0 0 1-3.212-6.669Z" class="coloraf2f2f svgShape"/><path fill="#fff" d="M507.37 144.19a37.713 37.713 0 0 1-3.211 6.668c-.638 1.05-1.289 2.093-2.005 3.097a26.786 26.786 0 0 1-2.316 2.912 26.787 26.787 0 0 1 1.45-3.426c.54-1.11 1.144-2.18 1.762-3.242a37.713 37.713 0 0 1 4.32-6.01Z" class="coloraf2f2f svgShape"/><path fill="#4b927a" d="M212.318 144.127c-1.204-1.656-2.92-1.716-4.877-1.054a1.456 1.456 0 0 0-.3.121c-.452-.874-.964-1.897-1.446-2.83a6.977 6.977 0 0 0 1.536-3.523 1.957 1.957 0 0 0-2.079-2.077 3.347 3.347 0 0 0-1.204.18 2.2 2.2 0 0 0-1.565 2.5 8.396 8.396 0 0 0 1.144 2.709l-.09.09.06-.06c-.421.512-.873 1.054-1.295 1.626a7.813 7.813 0 0 0-1.355 2.74 4.935 4.935 0 0 0 1.656 5.358 5.47 5.47 0 0 0 3.041 1.235 7.812 7.812 0 0 0 3.402-.662c.12-.03.18.511.21.571a3.717 3.717 0 0 1 .032.994c-.091.633-.602.843-1.025.572-.33-.21-.36-.481-.48-.603a.802.802 0 0 0-.603-.36.59.59 0 0 0-.602.482 1.09 1.09 0 0 0 .12.752 2.116 2.116 0 0 0 .783.782c1.595.934 3.522-.36 3.25-2.739l-.089-.752c-.03-.15-.03-.332-.061-.483v-.029c2.59-1.806 2.8-4.155 1.837-5.54zm-7.467-7.888c.994.06.06 1.776-.18 2.167a2.472 2.472 0 0 1-.15-.3c-.15-.362-.753-1.927.33-1.867zm.994 13.156a3.584 3.584 0 0 1-3.01-4.606 7.79 7.79 0 0 1 1.596-2.89c.781 1.446 1.113 2.048 1.144 2.108a2.866 2.866 0 0 0-1.084 1.746.545.545 0 0 0 .482.632.81.81 0 0 0 .903-.421 1.85 1.85 0 0 1 .42-.662c.784 1.355 1.085 1.656 2.078 3.491a6.163 6.163 0 0 1-2.529.602zm3.945-1.505c-1.204-2.167-1.446-2.438-1.928-3.34.03 0 .06-.032.09-.032 1.174-.3 2.018-.331 2.59.693a2.224 2.224 0 0 1-.752 2.679zm95.34-44.834c-1.204-1.656-2.92-1.716-4.877-1.054a1.456 1.456 0 0 0-.301.122c-.452-.874-.963-1.897-1.445-2.831a6.977 6.977 0 0 0 1.536-3.522 1.957 1.957 0 0 0-2.079-2.077 3.346 3.346 0 0 0-1.204.18 2.2 2.2 0 0 0-1.565 2.499 8.395 8.395 0 0 0 1.144 2.71l-.09.09.06-.06c-.421.512-.873 1.054-1.295 1.625a7.813 7.813 0 0 0-1.355 2.74 4.935 4.935 0 0 0 1.656 5.358 5.47 5.47 0 0 0 3.041 1.235 7.812 7.812 0 0 0 3.402-.662c.12-.03.18.512.21.572a3.717 3.717 0 0 1 .031.993c-.09.633-.602.844-1.024.572-.33-.21-.361-.48-.48-.602a.802.802 0 0 0-.603-.361.59.59 0 0 0-.602.482 1.09 1.09 0 0 0 .12.753 2.116 2.116 0 0 0 .783.782c1.595.933 3.522-.361 3.25-2.74l-.089-.752c-.03-.15-.03-.332-.061-.482v-.03c2.59-1.806 2.8-4.154 1.837-5.54zm-7.467-7.887c.994.06.06 1.775-.18 2.167a2.469 2.469 0 0 1-.15-.301c-.15-.361-.753-1.926.33-1.866zm.994 13.156a3.584 3.584 0 0 1-3.01-4.607 7.79 7.79 0 0 1 1.595-2.89c.782 1.446 1.114 2.048 1.145 2.108a2.866 2.866 0 0 0-1.085 1.747.545.545 0 0 0 .483.631.81.81 0 0 0 .903-.42 1.85 1.85 0 0 1 .42-.663c.784 1.355 1.085 1.656 2.078 3.492a6.164 6.164 0 0 1-2.529.602zm3.945-1.506c-1.205-2.167-1.446-2.437-1.928-3.34.03 0 .06-.031.09-.031 1.174-.301 2.017-.332 2.59.693a2.224 2.224 0 0 1-.752 2.678zm6.875 69.29c-1.3.632-3.294.906-3.964-.26-.673-1.171.697-2.574 2.02-3.216a4.154 4.154 0 0 1 3.268-.342v-6.237l-9.216 3.706c-.007 7.416.019 6.993-.02 7.101.212 1.138-1.054 2.264-2.17 2.811-1.3.633-3.295.906-3.965-.26-.676-1.174.701-2.576 2.024-3.215a3.914 3.914 0 0 1 3.438-.253V165.64a.344.344 0 0 1 .219-.318l9.905-3.983a.357.357 0 0 1 .323.035.35.35 0 0 1 .155.289c0 10.534.01 11.176-.002 11.211l.007.011c.68 1.174-.703 2.575-2.022 3.224zm-110.665 13.11c-1.3.632-3.295.905-3.965-.26-.673-1.172.697-2.574 2.02-3.216a4.154 4.154 0 0 1 3.269-.343v-6.236l-9.217 3.706c-.006 7.415.02 6.993-.02 7.101.213 1.138-1.053 2.264-2.17 2.811-1.3.632-3.294.906-3.965-.26-.675-1.174.702-2.577 2.024-3.216a3.915 3.915 0 0 1 3.438-.253v-10.302a.344.344 0 0 1 .22-.318l9.905-3.983a.357.357 0 0 1 .322.035.349.349 0 0 1 .156.288c0 10.535.01 11.177-.003 11.212l.007.011c.681 1.174-.703 2.575-2.021 3.224zm55.356-36.851c-.64 1.22-1.996 2.45-3.135 1.858-1.137-.585-.913-2.418-.273-3.636a3.397 3.397 0 0 1 2.41-1.996l-4.24-6.155a1.16 1.16 0 0 1-.027-1.27l2.476-3.981a.33.33 0 1 1 .561.348l-2.48 3.983a.503.503 0 0 0 .015.545c4.942 7.193 4.674 6.745 4.7 6.872.7.647.714 2.05-.007 3.432zm15.397 55.325c-1.024.922-2.724 1.603-3.586.652-.862-.945-.014-2.584 1.01-3.504a3.397 3.397 0 0 1 2.953-1.034l-1.834-7.245a1.16 1.16 0 0 1 .416-1.2l3.706-2.871a.33.33 0 1 1 .405.522l-3.71 2.871a.503.503 0 0 0-.176.516c2.131 8.463 2.036 7.95 2.016 8.078.431.85-.043 2.17-1.2 3.215z" class="colora2aee6 svgShape"/></svg></svg>