<svg fill="#18A76C" xmlns="http://www.w3.org/2000/svg" width="91" height="91" id="avocado"><path d="M38.705 36.652c-1.319 0-2.335.712-2.923 1.45-7.427 6.115-13.711 18.466-10.956 26.689 1.124 3.349 4.16 7.394 12.256 7.632.273.009.538.014.798.014 7.621 0 10.822-3.43 12.167-6.305 3.888-8.313-2.956-21.885-7.486-27.304-1.205-1.443-2.505-2.176-3.856-2.176zm7.397 27.631c-1.252 2.685-4.14 3.926-8.891 3.784-4.485-.133-7.261-1.698-8.252-4.66-1.936-5.77 2.823-16.51 9.789-22.099l.103-.082c.1.092.226.223.371.396 4.679 5.602 9.558 16.934 6.88 22.661z"></path><path d="M69.096 29.129c-1.306-3.277-2.785-6.988-4.595-11.164C59.915 7.408 48.496 6.81 42.764 8.007c-.061-.006-.134-.008-.21-.013.41-1.896.979-3.07 1.313-3.76.281-.572.52-1.069.52-1.709a2.178 2.178 0 1 0-4.305-.467l-.133.27c-.498 1.021-1.415 2.904-1.909 6.08-5.184 1.129-13.063 5.086-16.248 18.452l-.032.161c-.016.094-1.581 9.624-6.254 17.261-4.488 7.334-8.133 23.527-1.705 34.994 2.871 5.126 9.011 11.237 21.934 11.237h.061c1.439.112 2.86.171 4.23.171h.05c1.767.083 3.482.131 5.141.131 16.975 0 28.255-4.527 33.559-13.488 6.815-11.512 1.298-26.465-2.573-32.762-2.715-4.418-4.651-9.281-7.107-15.436zM40.025 86.327c-1.282 0-2.618-.055-3.973-.165l-.089-.009h-.229c-8.682 0-14.782-3.029-18.134-9.008-5.331-9.514-2.485-23.879 1.623-30.589 4.94-8.078 6.646-17.677 6.829-18.763 2.389-9.947 7.561-13.566 11.656-14.825-.002.807.021 1.657.078 2.565a2.18 2.18 0 0 0 2.17 2.043c.047 0 .092-.002.14-.004a2.18 2.18 0 0 0 2.037-2.311 33.648 33.648 0 0 1-.06-2.92c.299.007.525.023.646.034 10.082.764 11.832 9.273 12.763 17.921.132 1.211.241 2.255.403 3.114 1.611 8.553 5.66 16.496 5.889 16.934 4.706 8.052 5.086 17.895.967 25.067-2.857 4.979-9.119 10.916-22.716 10.916zm35.001-11.223c-2.826 4.776-7.884 8.049-15.085 9.813 2.686-1.978 4.908-4.426 6.58-7.34 4.881-8.504 4.496-20.056-.926-29.331-.04-.075-3.935-7.73-5.424-15.644-.13-.688-.236-1.654-.355-2.773-.461-4.283-1.244-11.513-5.489-16.479 2.447 1.11 4.743 3.046 6.177 6.349 1.785 4.116 3.252 7.794 4.546 11.041 2.531 6.353 4.53 11.37 7.441 16.102 3.946 6.419 7.873 19.244 2.535 28.262z"></path></svg>